<mxfile host="app.diagrams.net" modified="2023-07-27T14:43:04.768Z" agent="Mozilla/5.0 (Macintosh; Intel Mac OS X 10_15_7) AppleWebKit/537.36 (KHTML, like Gecko) Chrome/114.0.0.0 Safari/537.36" etag="Ig9UD1BWqj10ZtAa5lz6" version="21.6.5" type="github">
  <diagram id="R2lEEEUBdFMjLlhIrx00" name="Page-1">
    <mxGraphModel dx="1019" dy="713" grid="1" gridSize="10" guides="1" tooltips="1" connect="1" arrows="1" fold="1" page="1" pageScale="1" pageWidth="850" pageHeight="1100" math="0" shadow="0" extFonts="Permanent Marker^https://fonts.googleapis.com/css?family=Permanent+Marker">
      <root>
        <mxCell id="0" />
        <mxCell id="1" parent="0" />
        <mxCell id="C-vyLk0tnHw3VtMMgP7b-1" value="" style="edgeStyle=entityRelationEdgeStyle;endArrow=ERzeroToMany;startArrow=ERone;endFill=1;startFill=0;" parent="1" edge="1">
          <mxGeometry width="100" height="100" relative="1" as="geometry">
            <mxPoint x="630" y="470" as="sourcePoint" />
            <mxPoint x="390" y="280" as="targetPoint" />
            <Array as="points">
              <mxPoint x="400" y="280" />
            </Array>
          </mxGeometry>
        </mxCell>
        <mxCell id="C-vyLk0tnHw3VtMMgP7b-12" value="" style="edgeStyle=entityRelationEdgeStyle;endArrow=ERzeroToMany;startArrow=ERone;endFill=1;startFill=0;entryX=0;entryY=0.5;entryDx=0;entryDy=0;" parent="1" edge="1">
          <mxGeometry width="100" height="100" relative="1" as="geometry">
            <mxPoint x="320" y="250" as="sourcePoint" />
            <mxPoint x="70" y="382.5" as="targetPoint" />
            <Array as="points">
              <mxPoint x="50" y="387.5" />
              <mxPoint x="30" y="227.5" />
              <mxPoint x="60" y="307.5" />
            </Array>
          </mxGeometry>
        </mxCell>
        <mxCell id="C-vyLk0tnHw3VtMMgP7b-23" value="animal" style="shape=table;startSize=30;container=1;collapsible=1;childLayout=tableLayout;fixedRows=1;rowLines=0;fontStyle=1;align=center;resizeLast=1;" parent="1" vertex="1">
          <mxGeometry x="70" y="110" width="250" height="170" as="geometry" />
        </mxCell>
        <mxCell id="C-vyLk0tnHw3VtMMgP7b-24" value="" style="shape=partialRectangle;collapsible=0;dropTarget=0;pointerEvents=0;fillColor=none;points=[[0,0.5],[1,0.5]];portConstraint=eastwest;top=0;left=0;right=0;bottom=1;" parent="C-vyLk0tnHw3VtMMgP7b-23" vertex="1">
          <mxGeometry y="30" width="250" height="30" as="geometry" />
        </mxCell>
        <mxCell id="C-vyLk0tnHw3VtMMgP7b-25" value="PK" style="shape=partialRectangle;overflow=hidden;connectable=0;fillColor=none;top=0;left=0;bottom=0;right=0;fontStyle=1;" parent="C-vyLk0tnHw3VtMMgP7b-24" vertex="1">
          <mxGeometry width="30" height="30" as="geometry">
            <mxRectangle width="30" height="30" as="alternateBounds" />
          </mxGeometry>
        </mxCell>
        <mxCell id="C-vyLk0tnHw3VtMMgP7b-26" value="id" style="shape=partialRectangle;overflow=hidden;connectable=0;fillColor=none;top=0;left=0;bottom=0;right=0;align=left;spacingLeft=6;fontStyle=5;" parent="C-vyLk0tnHw3VtMMgP7b-24" vertex="1">
          <mxGeometry x="30" width="220" height="30" as="geometry">
            <mxRectangle width="220" height="30" as="alternateBounds" />
          </mxGeometry>
        </mxCell>
        <mxCell id="qqabjuYxqO0wRTuC6JqG-9" value="SERIAL" style="text;html=1;strokeColor=none;fillColor=none;align=center;verticalAlign=middle;whiteSpace=wrap;rounded=0;" parent="1" vertex="1">
          <mxGeometry x="240" y="140" width="60" height="30" as="geometry" />
        </mxCell>
        <mxCell id="qqabjuYxqO0wRTuC6JqG-10" value="" style="endArrow=none;html=1;rounded=0;" parent="1" edge="1">
          <mxGeometry width="50" height="50" relative="1" as="geometry">
            <mxPoint x="220" y="280" as="sourcePoint" />
            <mxPoint x="220" y="140" as="targetPoint" />
          </mxGeometry>
        </mxCell>
        <mxCell id="qqabjuYxqO0wRTuC6JqG-11" value="name" style="text;html=1;strokeColor=none;fillColor=none;align=center;verticalAlign=middle;whiteSpace=wrap;rounded=0;" parent="1" vertex="1">
          <mxGeometry x="120" y="170" width="60" height="30" as="geometry" />
        </mxCell>
        <mxCell id="qqabjuYxqO0wRTuC6JqG-12" value="type" style="text;html=1;strokeColor=none;fillColor=none;align=center;verticalAlign=middle;whiteSpace=wrap;rounded=0;" parent="1" vertex="1">
          <mxGeometry x="120" y="190" width="60" height="30" as="geometry" />
        </mxCell>
        <mxCell id="qqabjuYxqO0wRTuC6JqG-13" value="age" style="text;html=1;strokeColor=none;fillColor=none;align=center;verticalAlign=middle;whiteSpace=wrap;rounded=0;" parent="1" vertex="1">
          <mxGeometry x="120" y="210" width="60" height="30" as="geometry" />
        </mxCell>
        <mxCell id="qqabjuYxqO0wRTuC6JqG-14" value="enclosure_id" style="text;html=1;strokeColor=none;fillColor=none;align=center;verticalAlign=middle;whiteSpace=wrap;rounded=0;" parent="1" vertex="1">
          <mxGeometry x="130" y="240" width="60" height="30" as="geometry" />
        </mxCell>
        <mxCell id="qqabjuYxqO0wRTuC6JqG-15" value="VARCHAR(255)" style="text;html=1;strokeColor=none;fillColor=none;align=center;verticalAlign=middle;whiteSpace=wrap;rounded=0;" parent="1" vertex="1">
          <mxGeometry x="240" y="170" width="60" height="30" as="geometry" />
        </mxCell>
        <mxCell id="qqabjuYxqO0wRTuC6JqG-16" value="VARCHAR(255)" style="text;html=1;strokeColor=none;fillColor=none;align=center;verticalAlign=middle;whiteSpace=wrap;rounded=0;" parent="1" vertex="1">
          <mxGeometry x="240" y="190" width="60" height="30" as="geometry" />
        </mxCell>
        <mxCell id="qqabjuYxqO0wRTuC6JqG-17" value="INT" style="text;html=1;strokeColor=none;fillColor=none;align=center;verticalAlign=middle;whiteSpace=wrap;rounded=0;" parent="1" vertex="1">
          <mxGeometry x="240" y="210" width="60" height="30" as="geometry" />
        </mxCell>
        <mxCell id="qqabjuYxqO0wRTuC6JqG-18" value="INT" style="text;html=1;strokeColor=none;fillColor=none;align=center;verticalAlign=middle;whiteSpace=wrap;rounded=0;" parent="1" vertex="1">
          <mxGeometry x="240" y="240" width="60" height="30" as="geometry" />
        </mxCell>
        <mxCell id="qqabjuYxqO0wRTuC6JqG-20" value="" style="endArrow=none;html=1;rounded=0;" parent="1" edge="1">
          <mxGeometry width="50" height="50" relative="1" as="geometry">
            <mxPoint x="100" y="280" as="sourcePoint" />
            <mxPoint x="100" y="170" as="targetPoint" />
          </mxGeometry>
        </mxCell>
        <mxCell id="qqabjuYxqO0wRTuC6JqG-21" value="FK" style="text;html=1;strokeColor=none;fillColor=none;align=center;verticalAlign=middle;whiteSpace=wrap;rounded=0;" parent="1" vertex="1">
          <mxGeometry x="60" y="240" width="60" height="30" as="geometry" />
        </mxCell>
        <mxCell id="qqabjuYxqO0wRTuC6JqG-34" value="enclosure" style="shape=table;startSize=30;container=1;collapsible=1;childLayout=tableLayout;fixedRows=1;rowLines=0;fontStyle=1;align=center;resizeLast=1;" parent="1" vertex="1">
          <mxGeometry x="70" y="340" width="250" height="170" as="geometry" />
        </mxCell>
        <mxCell id="qqabjuYxqO0wRTuC6JqG-35" value="" style="shape=partialRectangle;collapsible=0;dropTarget=0;pointerEvents=0;fillColor=none;points=[[0,0.5],[1,0.5]];portConstraint=eastwest;top=0;left=0;right=0;bottom=1;" parent="qqabjuYxqO0wRTuC6JqG-34" vertex="1">
          <mxGeometry y="30" width="250" height="30" as="geometry" />
        </mxCell>
        <mxCell id="qqabjuYxqO0wRTuC6JqG-36" value="PK" style="shape=partialRectangle;overflow=hidden;connectable=0;fillColor=none;top=0;left=0;bottom=0;right=0;fontStyle=1;" parent="qqabjuYxqO0wRTuC6JqG-35" vertex="1">
          <mxGeometry width="30" height="30" as="geometry">
            <mxRectangle width="30" height="30" as="alternateBounds" />
          </mxGeometry>
        </mxCell>
        <mxCell id="qqabjuYxqO0wRTuC6JqG-37" value="id" style="shape=partialRectangle;overflow=hidden;connectable=0;fillColor=none;top=0;left=0;bottom=0;right=0;align=left;spacingLeft=6;fontStyle=5;" parent="qqabjuYxqO0wRTuC6JqG-35" vertex="1">
          <mxGeometry x="30" width="220" height="30" as="geometry">
            <mxRectangle width="220" height="30" as="alternateBounds" />
          </mxGeometry>
        </mxCell>
        <mxCell id="qqabjuYxqO0wRTuC6JqG-38" value="SERIAL" style="text;html=1;strokeColor=none;fillColor=none;align=center;verticalAlign=middle;whiteSpace=wrap;rounded=0;" parent="1" vertex="1">
          <mxGeometry x="240" y="370" width="60" height="30" as="geometry" />
        </mxCell>
        <mxCell id="qqabjuYxqO0wRTuC6JqG-39" value="" style="endArrow=none;html=1;rounded=0;" parent="1" edge="1">
          <mxGeometry width="50" height="50" relative="1" as="geometry">
            <mxPoint x="220" y="510" as="sourcePoint" />
            <mxPoint x="220" y="370" as="targetPoint" />
          </mxGeometry>
        </mxCell>
        <mxCell id="qqabjuYxqO0wRTuC6JqG-40" value="name" style="text;html=1;strokeColor=none;fillColor=none;align=center;verticalAlign=middle;whiteSpace=wrap;rounded=0;" parent="1" vertex="1">
          <mxGeometry x="120" y="400" width="60" height="30" as="geometry" />
        </mxCell>
        <mxCell id="qqabjuYxqO0wRTuC6JqG-41" value="capacity" style="text;html=1;strokeColor=none;fillColor=none;align=center;verticalAlign=middle;whiteSpace=wrap;rounded=0;" parent="1" vertex="1">
          <mxGeometry x="120" y="420" width="60" height="30" as="geometry" />
        </mxCell>
        <mxCell id="qqabjuYxqO0wRTuC6JqG-43" value="closedForMaintenance" style="text;html=1;strokeColor=none;fillColor=none;align=center;verticalAlign=middle;whiteSpace=wrap;rounded=0;" parent="1" vertex="1">
          <mxGeometry x="140" y="450" width="60" height="30" as="geometry" />
        </mxCell>
        <mxCell id="qqabjuYxqO0wRTuC6JqG-44" value="VARCHAR(255)" style="text;html=1;strokeColor=none;fillColor=none;align=center;verticalAlign=middle;whiteSpace=wrap;rounded=0;" parent="1" vertex="1">
          <mxGeometry x="240" y="400" width="60" height="30" as="geometry" />
        </mxCell>
        <mxCell id="qqabjuYxqO0wRTuC6JqG-46" value="INT" style="text;html=1;strokeColor=none;fillColor=none;align=center;verticalAlign=middle;whiteSpace=wrap;rounded=0;" parent="1" vertex="1">
          <mxGeometry x="240" y="420" width="60" height="30" as="geometry" />
        </mxCell>
        <mxCell id="qqabjuYxqO0wRTuC6JqG-47" value="boolean" style="text;html=1;strokeColor=none;fillColor=none;align=center;verticalAlign=middle;whiteSpace=wrap;rounded=0;" parent="1" vertex="1">
          <mxGeometry x="240" y="450" width="60" height="30" as="geometry" />
        </mxCell>
        <mxCell id="qqabjuYxqO0wRTuC6JqG-48" value="" style="endArrow=none;html=1;rounded=0;" parent="1" edge="1">
          <mxGeometry width="50" height="50" relative="1" as="geometry">
            <mxPoint x="100" y="510" as="sourcePoint" />
            <mxPoint x="100" y="400" as="targetPoint" />
          </mxGeometry>
        </mxCell>
        <mxCell id="qqabjuYxqO0wRTuC6JqG-51" value="staff" style="shape=table;startSize=30;container=1;collapsible=1;childLayout=tableLayout;fixedRows=1;rowLines=0;fontStyle=1;align=center;resizeLast=1;" parent="1" vertex="1">
          <mxGeometry x="380" y="420" width="250" height="170" as="geometry" />
        </mxCell>
        <mxCell id="qqabjuYxqO0wRTuC6JqG-52" value="" style="shape=partialRectangle;collapsible=0;dropTarget=0;pointerEvents=0;fillColor=none;points=[[0,0.5],[1,0.5]];portConstraint=eastwest;top=0;left=0;right=0;bottom=1;" parent="qqabjuYxqO0wRTuC6JqG-51" vertex="1">
          <mxGeometry y="30" width="250" height="30" as="geometry" />
        </mxCell>
        <mxCell id="qqabjuYxqO0wRTuC6JqG-53" value="PK" style="shape=partialRectangle;overflow=hidden;connectable=0;fillColor=none;top=0;left=0;bottom=0;right=0;fontStyle=1;" parent="qqabjuYxqO0wRTuC6JqG-52" vertex="1">
          <mxGeometry width="30" height="30" as="geometry">
            <mxRectangle width="30" height="30" as="alternateBounds" />
          </mxGeometry>
        </mxCell>
        <mxCell id="qqabjuYxqO0wRTuC6JqG-54" value="id" style="shape=partialRectangle;overflow=hidden;connectable=0;fillColor=none;top=0;left=0;bottom=0;right=0;align=left;spacingLeft=6;fontStyle=5;" parent="qqabjuYxqO0wRTuC6JqG-52" vertex="1">
          <mxGeometry x="30" width="220" height="30" as="geometry">
            <mxRectangle width="220" height="30" as="alternateBounds" />
          </mxGeometry>
        </mxCell>
        <mxCell id="qqabjuYxqO0wRTuC6JqG-55" value="SERIAL" style="text;html=1;strokeColor=none;fillColor=none;align=center;verticalAlign=middle;whiteSpace=wrap;rounded=0;" parent="1" vertex="1">
          <mxGeometry x="550" y="450" width="60" height="30" as="geometry" />
        </mxCell>
        <mxCell id="qqabjuYxqO0wRTuC6JqG-56" value="" style="endArrow=none;html=1;rounded=0;" parent="1" edge="1">
          <mxGeometry width="50" height="50" relative="1" as="geometry">
            <mxPoint x="530" y="590" as="sourcePoint" />
            <mxPoint x="530" y="450" as="targetPoint" />
          </mxGeometry>
        </mxCell>
        <mxCell id="qqabjuYxqO0wRTuC6JqG-57" value="name" style="text;html=1;strokeColor=none;fillColor=none;align=center;verticalAlign=middle;whiteSpace=wrap;rounded=0;" parent="1" vertex="1">
          <mxGeometry x="430" y="480" width="60" height="30" as="geometry" />
        </mxCell>
        <mxCell id="qqabjuYxqO0wRTuC6JqG-58" value="employeeNumber" style="text;html=1;strokeColor=none;fillColor=none;align=center;verticalAlign=middle;whiteSpace=wrap;rounded=0;" parent="1" vertex="1">
          <mxGeometry x="430" y="500" width="60" height="30" as="geometry" />
        </mxCell>
        <mxCell id="qqabjuYxqO0wRTuC6JqG-61" value="VARCHAR(255)" style="text;html=1;strokeColor=none;fillColor=none;align=center;verticalAlign=middle;whiteSpace=wrap;rounded=0;" parent="1" vertex="1">
          <mxGeometry x="550" y="480" width="60" height="30" as="geometry" />
        </mxCell>
        <mxCell id="qqabjuYxqO0wRTuC6JqG-63" value="INT" style="text;html=1;strokeColor=none;fillColor=none;align=center;verticalAlign=middle;whiteSpace=wrap;rounded=0;" parent="1" vertex="1">
          <mxGeometry x="550" y="500" width="60" height="30" as="geometry" />
        </mxCell>
        <mxCell id="qqabjuYxqO0wRTuC6JqG-65" value="" style="endArrow=none;html=1;rounded=0;" parent="1" edge="1">
          <mxGeometry width="50" height="50" relative="1" as="geometry">
            <mxPoint x="410" y="590" as="sourcePoint" />
            <mxPoint x="410" y="480" as="targetPoint" />
          </mxGeometry>
        </mxCell>
        <mxCell id="qqabjuYxqO0wRTuC6JqG-78" value="assignment" style="shape=table;startSize=30;container=1;collapsible=1;childLayout=tableLayout;fixedRows=1;rowLines=0;fontStyle=1;align=center;resizeLast=1;" parent="1" vertex="1">
          <mxGeometry x="390" y="170" width="250" height="170" as="geometry" />
        </mxCell>
        <mxCell id="qqabjuYxqO0wRTuC6JqG-79" value="" style="shape=partialRectangle;collapsible=0;dropTarget=0;pointerEvents=0;fillColor=none;points=[[0,0.5],[1,0.5]];portConstraint=eastwest;top=0;left=0;right=0;bottom=1;" parent="qqabjuYxqO0wRTuC6JqG-78" vertex="1">
          <mxGeometry y="30" width="250" height="30" as="geometry" />
        </mxCell>
        <mxCell id="qqabjuYxqO0wRTuC6JqG-80" value="PK" style="shape=partialRectangle;overflow=hidden;connectable=0;fillColor=none;top=0;left=0;bottom=0;right=0;fontStyle=1;" parent="qqabjuYxqO0wRTuC6JqG-79" vertex="1">
          <mxGeometry width="30" height="30" as="geometry">
            <mxRectangle width="30" height="30" as="alternateBounds" />
          </mxGeometry>
        </mxCell>
        <mxCell id="qqabjuYxqO0wRTuC6JqG-81" value="id" style="shape=partialRectangle;overflow=hidden;connectable=0;fillColor=none;top=0;left=0;bottom=0;right=0;align=left;spacingLeft=6;fontStyle=5;" parent="qqabjuYxqO0wRTuC6JqG-79" vertex="1">
          <mxGeometry x="30" width="220" height="30" as="geometry">
            <mxRectangle width="220" height="30" as="alternateBounds" />
          </mxGeometry>
        </mxCell>
        <mxCell id="qqabjuYxqO0wRTuC6JqG-82" value="SERIAL" style="text;html=1;strokeColor=none;fillColor=none;align=center;verticalAlign=middle;whiteSpace=wrap;rounded=0;" parent="1" vertex="1">
          <mxGeometry x="560" y="200" width="60" height="30" as="geometry" />
        </mxCell>
        <mxCell id="qqabjuYxqO0wRTuC6JqG-83" value="" style="endArrow=none;html=1;rounded=0;" parent="1" edge="1">
          <mxGeometry width="50" height="50" relative="1" as="geometry">
            <mxPoint x="540" y="340" as="sourcePoint" />
            <mxPoint x="540" y="200" as="targetPoint" />
          </mxGeometry>
        </mxCell>
        <mxCell id="qqabjuYxqO0wRTuC6JqG-86" value="staff_id" style="text;html=1;strokeColor=none;fillColor=none;align=center;verticalAlign=middle;whiteSpace=wrap;rounded=0;" parent="1" vertex="1">
          <mxGeometry x="440" y="260" width="60" height="30" as="geometry" />
        </mxCell>
        <mxCell id="qqabjuYxqO0wRTuC6JqG-87" value="enclosure_id" style="text;html=1;strokeColor=none;fillColor=none;align=center;verticalAlign=middle;whiteSpace=wrap;rounded=0;" parent="1" vertex="1">
          <mxGeometry x="450" y="280" width="60" height="30" as="geometry" />
        </mxCell>
        <mxCell id="qqabjuYxqO0wRTuC6JqG-90" value="INT" style="text;html=1;strokeColor=none;fillColor=none;align=center;verticalAlign=middle;whiteSpace=wrap;rounded=0;" parent="1" vertex="1">
          <mxGeometry x="560" y="260" width="60" height="30" as="geometry" />
        </mxCell>
        <mxCell id="qqabjuYxqO0wRTuC6JqG-91" value="INT" style="text;html=1;strokeColor=none;fillColor=none;align=center;verticalAlign=middle;whiteSpace=wrap;rounded=0;" parent="1" vertex="1">
          <mxGeometry x="560" y="280" width="60" height="30" as="geometry" />
        </mxCell>
        <mxCell id="qqabjuYxqO0wRTuC6JqG-92" value="" style="endArrow=none;html=1;rounded=0;" parent="1" edge="1">
          <mxGeometry width="50" height="50" relative="1" as="geometry">
            <mxPoint x="420" y="340" as="sourcePoint" />
            <mxPoint x="420" y="230" as="targetPoint" />
          </mxGeometry>
        </mxCell>
        <mxCell id="qqabjuYxqO0wRTuC6JqG-93" value="FK" style="text;html=1;strokeColor=none;fillColor=none;align=center;verticalAlign=middle;whiteSpace=wrap;rounded=0;" parent="1" vertex="1">
          <mxGeometry x="380" y="260" width="60" height="30" as="geometry" />
        </mxCell>
        <mxCell id="qqabjuYxqO0wRTuC6JqG-94" value="day" style="text;html=1;strokeColor=none;fillColor=none;align=center;verticalAlign=middle;whiteSpace=wrap;rounded=0;" parent="1" vertex="1">
          <mxGeometry x="450" y="300" width="60" height="30" as="geometry" />
        </mxCell>
        <mxCell id="qqabjuYxqO0wRTuC6JqG-95" value="VARCHAR(255)" style="text;html=1;strokeColor=none;fillColor=none;align=center;verticalAlign=middle;whiteSpace=wrap;rounded=0;" parent="1" vertex="1">
          <mxGeometry x="560" y="300" width="60" height="30" as="geometry" />
        </mxCell>
        <mxCell id="qqabjuYxqO0wRTuC6JqG-96" value="FK" style="text;html=1;strokeColor=none;fillColor=none;align=center;verticalAlign=middle;whiteSpace=wrap;rounded=0;" parent="1" vertex="1">
          <mxGeometry x="380" y="290" width="60" height="30" as="geometry" />
        </mxCell>
        <mxCell id="qqabjuYxqO0wRTuC6JqG-99" value="" style="edgeStyle=entityRelationEdgeStyle;endArrow=ERzeroToMany;startArrow=ERone;endFill=1;startFill=0;exitX=0.996;exitY=-0.1;exitDx=0;exitDy=0;exitPerimeter=0;" parent="1" source="qqabjuYxqO0wRTuC6JqG-35" edge="1">
          <mxGeometry width="100" height="100" relative="1" as="geometry">
            <mxPoint x="330" y="370" as="sourcePoint" />
            <mxPoint x="390" y="290" as="targetPoint" />
            <Array as="points">
              <mxPoint x="345" y="442.5" />
              <mxPoint x="400" y="370" />
              <mxPoint x="325" y="282.5" />
              <mxPoint x="355" y="362.5" />
            </Array>
          </mxGeometry>
        </mxCell>
      </root>
    </mxGraphModel>
  </diagram>
</mxfile>
